
<mxfile host="app.diagrams.net">
  <diagram name="Zipkin Architecture UML">
    <mxGraphModel dx="1680" dy="1240" grid="1" gridSize="10" guides="1" tooltips="1" connect="1" arrows="1" fold="1" page="1" pageScale="1" pageWidth="850" pageHeight="1100" math="0" shadow="0">
      <root>
        <mxCell id="0" />
        <mxCell id="1" parent="0" />
        
        <!-- Application Services -->
        <mxCell id="2" value="Application Services" style="shape=rectangle;whiteSpace=wrap;html=1;fillColor=#e3f2fd;" vertex="1" parent="1">
          <mxGeometry x="100" y="50" width="200" height="60" as="geometry" />
        </mxCell>
        <mxCell id="3" value="Service A" style="shape=rectangle;whiteSpace=wrap;html=1;fillColor=#bbdefb;" vertex="1" parent="1">
          <mxGeometry x="120" y="120" width="80" height="40" as="geometry" />
        </mxCell>
        <mxCell id="4" value="Service B" style="shape=rectangle;whiteSpace=wrap;html=1;fillColor=#bbdefb;" vertex="1" parent="1">
          <mxGeometry x="220" y="120" width="80" height="40" as="geometry" />
        </mxCell>

        <!-- Collector -->
        <mxCell id="5" value="Zipkin Collector" style="shape=rectangle;whiteSpace=wrap;html=1;fillColor=#ffe0b2;" vertex="1" parent="1">
          <mxGeometry x="150" y="200" width="150" height="60" as="geometry" />
        </mxCell>

        <!-- Storage Backend -->
        <mxCell id="6" value="Storage Backend (e.g., Elasticsearch, Cassandra)" style="shape=rectangle;whiteSpace=wrap;html=1;fillColor=#c8e6c9;" vertex="1" parent="1">
          <mxGeometry x="150" y="300" width="200" height="60" as="geometry" />
        </mxCell>

        <!-- Query API -->
        <mxCell id="7" value="Query API" style="shape=rectangle;whiteSpace=wrap;html=1;fillColor=#d9e8fb;" vertex="1" parent="1">
          <mxGeometry x="180" y="400" width="140" height="40" as="geometry" />
        </mxCell>

        <!-- Web UI -->
        <mxCell id="8" value="Web UI" style="shape=rectangle;whiteSpace=wrap;html=1;fillColor=#ffccbc;" vertex="1" parent="1">
          <mxGeometry x="200" y="470" width="100" height="40" as="geometry" />
        </mxCell>

        <!-- Connections -->
        <mxCell id="9" style="edgeStyle=orthogonalEdgeStyle;rounded=0;orthogonalLoop=1;jettySize=auto;" edge="1" parent="1" source="3" target="5">
          <mxGeometry relative="1" as="geometry" />
        </mxCell>
        <mxCell id="10" style="edgeStyle=orthogonalEdgeStyle;rounded=0;orthogonalLoop=1;jettySize=auto;" edge="1" parent="1" source="4" target="5">
          <mxGeometry relative="1" as="geometry" />
        </mxCell>
        <mxCell id="11" style="edgeStyle=orthogonalEdgeStyle;rounded=0;orthogonalLoop=1;jettySize=auto;" edge="1" parent="1" source="5" target="6">
          <mxGeometry relative="1" as="geometry" />
        </mxCell>
        <mxCell id="12" style="edgeStyle=orthogonalEdgeStyle;rounded=0;orthogonalLoop=1;jettySize=auto;" edge="1" parent="1" source="6" target="7">
          <mxGeometry relative="1" as="geometry" />
        </mxCell>
        <mxCell id="13" style="edgeStyle=orthogonalEdgeStyle;rounded=0;orthogonalLoop=1;jettySize=auto;" edge="1" parent="1" source="7" target="8">
          <mxGeometry relative="1" as="geometry" />
        </mxCell>
      </root>
    </mxGraphModel>
  </diagram>
</mxfile>
